HIERARCHY
ROOT mixamorig:Hips
{
	OFFSET -0.000008 104.274872 1.554316
	CHANNELS 6 Xposition Yposition Zposition Xrotation Yrotation Zrotation
	JOINT mixamorig:Spine
	{
		OFFSET -0.000005 10.181595 0.131519
		CHANNELS 6 Xposition Yposition Zposition Xrotation Yrotation Zrotation
		JOINT mixamorig:Spine1
		{
			OFFSET -0.000000 9.893959 -1.470707
			CHANNELS 6 Xposition Yposition Zposition Xrotation Yrotation Zrotation
			JOINT mixamorig:Spine2
			{
				OFFSET -0.000000 9.220757 -1.370641
				CHANNELS 6 Xposition Yposition Zposition Xrotation Yrotation Zrotation
				JOINT mixamorig:Neck
				{
					OFFSET 0.000001 16.740417 -2.049036
					CHANNELS 6 Xposition Yposition Zposition Xrotation Yrotation Zrotation
					JOINT mixamorig:Head
					{
						OFFSET 0.000000 9.617874 1.685006
						CHANNELS 6 Xposition Yposition Zposition Xrotation Yrotation Zrotation
						JOINT mixamorig:HeadTop_End
						{
							OFFSET 0.000002 22.037354 7.501101
							CHANNELS 6 Xposition Yposition Zposition Xrotation Yrotation Zrotation
							End Site
							{
								OFFSET 0.000168 2310.654297 -282.823242
							}
						}
					}
				}
				JOINT mixamorig:RightShoulder
				{
					OFFSET -4.569970 11.014908 -2.160885
					CHANNELS 6 Xposition Yposition Zposition Xrotation Yrotation Zrotation
					JOINT mixamorig:RightArm
					{
						OFFSET -10.592851 -0.524811 -2.232101
						CHANNELS 6 Xposition Yposition Zposition Xrotation Yrotation Zrotation
						JOINT mixamorig:RightForeArm
						{
							OFFSET -27.841511 0.000031 -0.000004
							CHANNELS 6 Xposition Yposition Zposition Xrotation Yrotation Zrotation
							JOINT mixamorig:RightHand
							{
								OFFSET -28.328831 -0.000015 0.000015
								CHANNELS 6 Xposition Yposition Zposition Xrotation Yrotation Zrotation
								JOINT mixamorig:RightHandThumb1
								{
									OFFSET -2.464806 -1.573990 2.681852
									CHANNELS 6 Xposition Yposition Zposition Xrotation Yrotation Zrotation
									JOINT mixamorig:RightHandThumb2
									{
										OFFSET -3.215179 -1.872803 1.924282
										CHANNELS 6 Xposition Yposition Zposition Xrotation Yrotation Zrotation
										JOINT mixamorig:RightHandThumb3
										{
											OFFSET -2.654831 -1.527969 1.512609
											CHANNELS 6 Xposition Yposition Zposition Xrotation Yrotation Zrotation
											JOINT mixamorig:RightHandThumb4
											{
												OFFSET -2.018814 -1.152008 1.108052
												CHANNELS 6 Xposition Yposition Zposition Xrotation Yrotation Zrotation
												End Site
												{
													OFFSET -188.809540 -114.533607 132.431396
												}
											}
										}
									}
								}
								JOINT mixamorig:RightHandIndex1
								{
									OFFSET -9.108284 -0.517868 2.259835
									CHANNELS 6 Xposition Yposition Zposition Xrotation Yrotation Zrotation
									JOINT mixamorig:RightHandIndex2
									{
										OFFSET -3.699989 0.000000 0.001215
										CHANNELS 6 Xposition Yposition Zposition Xrotation Yrotation Zrotation
										JOINT mixamorig:RightHandIndex3
										{
											OFFSET -2.850006 0.000031 -0.000522
											CHANNELS 6 Xposition Yposition Zposition Xrotation Yrotation Zrotation
											JOINT mixamorig:RightHandIndex4
											{
												OFFSET -2.772186 -0.000015 -0.000020
												CHANNELS 6 Xposition Yposition Zposition Xrotation Yrotation Zrotation
												End Site
												{
													OFFSET -277.218445 0.000000 -0.050231
												}
											}
										}
									}
								}
								JOINT mixamorig:RightHandMiddle1
								{
									OFFSET -9.532516 -0.000031 -0.000023
									CHANNELS 6 Xposition Yposition Zposition Xrotation Yrotation Zrotation
									JOINT mixamorig:RightHandMiddle2
									{
										OFFSET -3.700005 -0.000015 0.003713
										CHANNELS 6 Xposition Yposition Zposition Xrotation Yrotation Zrotation
										JOINT mixamorig:RightHandMiddle3
										{
											OFFSET -2.949974 0.000015 -0.002054
											CHANNELS 6 Xposition Yposition Zposition Xrotation Yrotation Zrotation
											JOINT mixamorig:RightHandMiddle4
											{
												OFFSET -2.946640 0.000000 -0.000156
												CHANNELS 6 Xposition Yposition Zposition Xrotation Yrotation Zrotation
												End Site
												{
													OFFSET -294.664337 0.000000 -0.113670
												}
											}
										}
									}
								}
								JOINT mixamorig:RightHandRing1
								{
									OFFSET -9.103600 -0.043076 -1.865134
									CHANNELS 6 Xposition Yposition Zposition Xrotation Yrotation Zrotation
									JOINT mixamorig:RightHandRing2
									{
										OFFSET -3.379288 0.000000 -0.001055
										CHANNELS 6 Xposition Yposition Zposition Xrotation Yrotation Zrotation
										JOINT mixamorig:RightHandRing3
										{
											OFFSET -2.889687 -0.000015 0.000379
											CHANNELS 6 Xposition Yposition Zposition Xrotation Yrotation Zrotation
											JOINT mixamorig:RightHandRing4
											{
												OFFSET -2.638809 -0.000015 0.000941
												CHANNELS 6 Xposition Yposition Zposition Xrotation Yrotation Zrotation
												End Site
												{
													OFFSET -263.880371 0.000000 0.516020
												}
											}
										}
									}
								}
								JOINT mixamorig:RightHandPinky1
								{
									OFFSET -8.076683 -0.486710 -3.806280
									CHANNELS 6 Xposition Yposition Zposition Xrotation Yrotation Zrotation
									JOINT mixamorig:RightHandPinky2
									{
										OFFSET -3.600014 -0.000015 -0.003747
										CHANNELS 6 Xposition Yposition Zposition Xrotation Yrotation Zrotation
										JOINT mixamorig:RightHandPinky3
										{
											OFFSET -2.099983 0.000000 -0.005739
											CHANNELS 6 Xposition Yposition Zposition Xrotation Yrotation Zrotation
											JOINT mixamorig:RightHandPinky4
											{
												OFFSET -2.115768 -0.000031 -0.003680
												CHANNELS 6 Xposition Yposition Zposition Xrotation Yrotation Zrotation
												End Site
												{
													OFFSET -211.577087 0.000000 -0.350686
												}
											}
										}
									}
								}
							}
						}
					}
				}
				JOINT mixamorig:LeftShoulder
				{
					OFFSET 4.570447 11.014725 -2.160855
					CHANNELS 6 Xposition Yposition Zposition Xrotation Yrotation Zrotation
					JOINT mixamorig:LeftArm
					{
						OFFSET 10.592371 -0.524597 -2.232119
						CHANNELS 6 Xposition Yposition Zposition Xrotation Yrotation Zrotation
						JOINT mixamorig:LeftForeArm
						{
							OFFSET 27.841532 -0.000031 0.000026
							CHANNELS 6 Xposition Yposition Zposition Xrotation Yrotation Zrotation
							JOINT mixamorig:LeftHand
							{
								OFFSET 28.328846 -0.000061 0.000022
								CHANNELS 6 Xposition Yposition Zposition Xrotation Yrotation Zrotation
								JOINT mixamorig:LeftHandThumb1
								{
									OFFSET 2.466141 -1.576172 2.681732
									CHANNELS 6 Xposition Yposition Zposition Xrotation Yrotation Zrotation
									JOINT mixamorig:LeftHandThumb2
									{
										OFFSET 3.217812 -1.872070 1.916482
										CHANNELS 6 Xposition Yposition Zposition Xrotation Yrotation Zrotation
										JOINT mixamorig:LeftHandThumb3
										{
											OFFSET 2.656029 -1.528778 1.514513
											CHANNELS 6 Xposition Yposition Zposition Xrotation Yrotation Zrotation
											JOINT mixamorig:LeftHandThumb4
											{
												OFFSET 2.020889 -1.154053 1.115139
												CHANNELS 6 Xposition Yposition Zposition Xrotation Yrotation Zrotation
												End Site
												{
													OFFSET 190.885437 -115.081749 130.048782
												}
											}
										}
									}
								}
								JOINT mixamorig:LeftHandIndex1
								{
									OFFSET 9.109314 -0.518021 2.259871
									CHANNELS 6 Xposition Yposition Zposition Xrotation Yrotation Zrotation
									JOINT mixamorig:LeftHandIndex2
									{
										OFFSET 3.699989 0.000000 -0.000322
										CHANNELS 6 Xposition Yposition Zposition Xrotation Yrotation Zrotation
										JOINT mixamorig:LeftHandIndex3
										{
											OFFSET 2.850006 0.000000 0.000352
											CHANNELS 6 Xposition Yposition Zposition Xrotation Yrotation Zrotation
											JOINT mixamorig:LeftHandIndex4
											{
												OFFSET 2.774864 -0.000031 -0.000027
												CHANNELS 6 Xposition Yposition Zposition Xrotation Yrotation Zrotation
												End Site
												{
													OFFSET 277.486267 0.000000 -0.009857
												}
											}
										}
									}
								}
								JOINT mixamorig:LeftHandMiddle1
								{
									OFFSET 9.533394 0.000061 0.000044
									CHANNELS 6 Xposition Yposition Zposition Xrotation Yrotation Zrotation
									JOINT mixamorig:LeftHandMiddle2
									{
										OFFSET 3.699989 -0.000015 -0.000231
										CHANNELS 6 Xposition Yposition Zposition Xrotation Yrotation Zrotation
										JOINT mixamorig:LeftHandMiddle3
										{
											OFFSET 2.949997 -0.000015 -0.000059
											CHANNELS 6 Xposition Yposition Zposition Xrotation Yrotation Zrotation
											JOINT mixamorig:LeftHandMiddle4
											{
												OFFSET 2.952896 0.000031 0.000063
												CHANNELS 6 Xposition Yposition Zposition Xrotation Yrotation Zrotation
												End Site
												{
													OFFSET 295.289337 0.000000 0.022810
												}
											}
										}
									}
								}
								JOINT mixamorig:LeftHandRing1
								{
									OFFSET 9.104523 -0.042999 -1.865074
									CHANNELS 6 Xposition Yposition Zposition Xrotation Yrotation Zrotation
									JOINT mixamorig:LeftHandRing2
									{
										OFFSET 3.150009 -0.000031 0.000043
										CHANNELS 6 Xposition Yposition Zposition Xrotation Yrotation Zrotation
										JOINT mixamorig:LeftHandRing3
										{
											OFFSET 2.949982 -0.000015 0.000040
											CHANNELS 6 Xposition Yposition Zposition Xrotation Yrotation Zrotation
											JOINT mixamorig:LeftHandRing4
											{
												OFFSET 2.644348 0.000000 0.000057
												CHANNELS 6 Xposition Yposition Zposition Xrotation Yrotation Zrotation
												End Site
												{
													OFFSET 264.434631 0.000000 0.012105
												}
											}
										}
									}
								}
								JOINT mixamorig:LeftHandPinky1
								{
									OFFSET 8.077789 -0.486847 -3.806259
									CHANNELS 6 Xposition Yposition Zposition Xrotation Yrotation Zrotation
									JOINT mixamorig:LeftHandPinky2
									{
										OFFSET 3.599953 0.000031 0.014727
										CHANNELS 6 Xposition Yposition Zposition Xrotation Yrotation Zrotation
										JOINT mixamorig:LeftHandPinky3
										{
											OFFSET 2.100021 0.000015 0.007705
											CHANNELS 6 Xposition Yposition Zposition Xrotation Yrotation Zrotation
											JOINT mixamorig:LeftHandPinky4
											{
												OFFSET 2.125504 0.000031 0.007517
												CHANNELS 6 Xposition Yposition Zposition Xrotation Yrotation Zrotation
												End Site
												{
													OFFSET 212.550781 0.000000 0.625752
												}
											}
										}
									}
								}
							}
						}
					}
				}
			}
		}
	}
	JOINT mixamorig:RightUpLeg
	{
		OFFSET -8.207787 -6.751648 -1.599560
		CHANNELS 6 Xposition Yposition Zposition Xrotation Yrotation Zrotation
		JOINT mixamorig:RightLeg
		{
			OFFSET -0.000002 -44.370117 0.345942
			CHANNELS 6 Xposition Yposition Zposition Xrotation Yrotation Zrotation
			JOINT mixamorig:RightFoot
			{
				OFFSET 0.000003 -44.423679 -3.043532
				CHANNELS 6 Xposition Yposition Zposition Xrotation Yrotation Zrotation
				JOINT mixamorig:RightToeBase
				{
					OFFSET -0.000002 -8.728671 10.710558
					CHANNELS 6 Xposition Yposition Zposition Xrotation Yrotation Zrotation
					JOINT mixamorig:RightToe_End
					{
						OFFSET -0.000001 -0.000679 9.278119
						CHANNELS 6 Xposition Yposition Zposition Xrotation Yrotation Zrotation
						End Site
						{
							OFFSET 0.000000 -0.067690 927.812134
						}
					}
				}
			}
		}
	}
	JOINT mixamorig:LeftUpLeg
	{
		OFFSET 8.207793 -6.751686 -1.599556
		CHANNELS 6 Xposition Yposition Zposition Xrotation Yrotation Zrotation
		JOINT mixamorig:LeftLeg
		{
			OFFSET -0.000004 -44.370014 0.346954
			CHANNELS 6 Xposition Yposition Zposition Xrotation Yrotation Zrotation
			JOINT mixamorig:LeftFoot
			{
				OFFSET -0.000001 -44.423672 -3.044401
				CHANNELS 6 Xposition Yposition Zposition Xrotation Yrotation Zrotation
				JOINT mixamorig:LeftToeBase
				{
					OFFSET -0.000002 -8.728669 10.710558
					CHANNELS 6 Xposition Yposition Zposition Xrotation Yrotation Zrotation
					JOINT mixamorig:LeftToe_End
					{
						OFFSET -0.000003 -0.000679 9.278133
						CHANNELS 6 Xposition Yposition Zposition Xrotation Yrotation Zrotation
						End Site
						{
							OFFSET 0.000000 -0.068021 927.813477
						}
					}
				}
			}
		}
	}
}
MOTION
Frames: 3
Frame Time: 0.033333
0.000006 104.270477 1.554256 0.000010 0.000003 -0.000113 -0.000005 10.181587 0.131522 0.000001 -0.000003 0.000084 -0.000000 9.893967 -1.470711 0.000001 0.000000 -0.000000 -0.000000 9.220802 -1.370642 0.000000 -0.000000 -0.000000 0.000001 16.740433 -2.049030 0.000000 -0.000000 -0.000000 0.000000 9.617859 1.685014 0.000000 0.000000 0.000000 0.000002 22.037384 7.501101 0.000000 -0.000000 0.000000 -4.569968 11.014880 -2.160881 0.000008 0.000001 -0.000038 -10.592877 -0.524726 -2.231955 74.261457 21.409414 -16.290524 -27.841511 0.000007 0.000536 -48.437905 109.961217 65.396042 -28.328842 0.000007 0.000028 -0.000320 -0.000044 0.000006 -2.464456 -1.573732 2.682304 -50.832734 -169.029355 -18.123678 -3.215271 -1.872588 1.924636 151.809506 31.598907 6.280883 -2.654963 -1.527836 1.513054 144.368479 27.724035 -33.306291 -2.018811 -1.152014 1.108063 -0.000004 -0.000006 0.000002 -9.108387 -0.517546 2.260119 99.448135 15.311906 -18.083003 -3.700080 0.000312 0.001515 95.711222 13.535530 -14.915436 -2.850078 0.000364 -0.000272 94.210397 11.959422 -12.863821 -2.772179 0.000001 -0.000016 0.000004 0.000000 0.000000 -9.532609 0.000266 0.000224 89.271556 16.784357 -16.716910 -3.700075 0.000343 0.003947 89.385244 12.851267 -12.620773 -2.950082 0.000319 -0.001813 92.364566 12.403349 -12.914293 -2.946623 0.000001 -0.000150 -0.000001 0.000000 -0.000001 -9.103724 -0.042771 -1.864890 86.612263 20.370937 -19.179742 -3.379335 0.000312 -0.000810 89.839985 11.235969 -11.222471 -2.889771 0.000335 0.000656 97.203018 8.437144 -9.618281 -2.638817 -0.000014 0.000942 0.000002 -0.000001 -0.000003 -8.076771 -0.486435 -3.806076 72.661656 22.200082 -16.300982 -3.600056 0.000254 -0.003542 76.161746 12.170918 -9.256523 -2.100018 0.000302 -0.005535 81.496437 7.039473 -5.874024 -2.115776 -0.000054 -0.003677 0.000001 0.000001 -0.000003 4.570446 11.014691 -2.160851 -0.000018 0.000010 -0.000021 10.592499 -0.524552 -2.232371 51.025639 -63.110886 32.671291 27.841738 -0.000051 -0.000102 231.680399 -72.518973 246.869784 28.328840 -0.000014 0.000030 0.000021 -0.000089 -0.000000 2.466185 -1.576114 2.681877 23.970581 140.524531 -92.181968 3.217848 -1.871987 1.916531 34.786946 151.629011 -109.083783 2.656100 -1.528620 1.514585 45.718028 -186.196489 226.308537 2.020883 -1.154076 1.115163 -0.000001 -0.000000 0.000003 9.109116 -0.517812 2.260081 45.468679 -146.177810 108.071816 3.699835 0.000223 -0.000104 -133.121480 -27.524503 -58.933133 2.849810 0.000291 0.000555 38.971325 -158.035469 122.516382 2.774890 -0.000048 -0.000016 0.000007 0.000001 0.000002 9.533520 0.000252 -0.000015 -50.000390 -158.507886 -135.727470 3.700060 0.000220 -0.000353 463.027594 -13.083269 -343.588650 2.950019 0.000217 -0.000205 270.651628 -176.615086 -176.573764 2.952881 -0.000045 0.000056 -0.000002 0.000000 0.000000 9.104637 -0.042748 -1.865169 126.968258 -16.792587 32.964204 3.149981 0.000314 -0.000108 109.799567 2.905752 -4.131466 2.949921 0.000282 -0.000148 99.306914 12.860548 -15.114017 2.644327 0.000031 0.000046 0.000001 -0.000002 -0.000000 8.077887 -0.486591 -3.806315 133.554049 -16.127791 37.906611 3.599913 0.000377 0.014567 118.273987 6.952082 -11.002802 2.099885 0.000317 0.007523 108.454443 18.451237 -25.067961 2.125502 -0.000011 0.007518 -0.000000 0.000000 0.000000 -8.207786 -6.751667 -1.599560 -0.077001 -0.000003 0.000080 -0.000002 -44.370110 0.345938 0.153719 -0.000000 -0.000000 0.000000 -44.423679 -3.043532 -0.076700 0.000000 -0.000002 -0.000006 -8.728667 10.710559 -0.000009 -0.000000 -0.000000 -0.000001 -0.000679 9.278123 0.000000 -0.000000 -0.000000 8.207792 -6.751710 -1.599556 -0.074518 -0.000003 0.000081 -0.000002 -44.370014 0.346960 0.148822 0.000002 0.000000 -0.000001 -44.423664 -3.044403 -0.074314 0.000000 -0.000002 -0.000004 -8.728671 10.710558 0.000007 -0.000000 -0.000000 0.000000 -0.000680 9.278137 -0.000000 0.000000 -0.000001 
0.000006 104.270477 1.554256 0.000010 0.000003 -0.000113 -0.000005 10.181587 0.131522 0.000001 -0.000003 0.000084 -0.000000 9.893967 -1.470711 0.000001 0.000000 -0.000000 -0.000000 9.220802 -1.370642 0.000000 -0.000000 -0.000000 0.000001 16.740433 -2.049030 0.000000 -0.000000 -0.000000 0.000000 9.617859 1.685014 0.000000 0.000000 0.000000 0.000002 22.037384 7.501101 0.000000 -0.000000 0.000000 -4.569968 11.014880 -2.160881 0.000008 0.000001 -0.000038 -10.592875 -0.524763 -2.231909 74.674171 28.134282 -21.642226 -27.841507 0.000004 0.000557 -48.292853 110.960767 66.192101 -28.328817 0.000019 0.000028 -0.000324 -0.000044 0.000006 -2.464430 -1.573721 2.682297 -50.822290 -168.585570 -18.045052 -3.215272 -1.872557 1.924638 151.532091 31.505600 5.903295 -2.654964 -1.527861 1.513058 144.084439 27.838365 -32.344631 -2.018827 -1.151996 1.108075 -0.000004 -0.000002 0.000005 -9.108383 -0.517558 2.260120 99.583161 15.199273 -17.993184 -3.700075 0.000300 0.001514 95.728947 13.635849 -15.030536 -2.850089 0.000366 -0.000258 93.833316 12.100544 -12.930590 -2.772161 -0.000000 -0.000021 -0.000001 -0.000001 -0.000001 -9.532587 0.000264 0.000218 89.139125 15.832317 -15.739177 -3.700080 0.000321 0.003958 89.565418 12.337296 -12.150563 -2.950060 0.000337 -0.001810 92.085328 12.332990 -12.779093 -2.946626 0.000013 -0.000154 -0.000006 0.000001 0.000000 -9.103714 -0.042767 -1.864862 86.546925 19.307531 -18.154084 -3.379346 0.000325 -0.000814 89.690479 10.719505 -10.679565 -2.889768 0.000353 0.000635 96.273893 8.554679 -9.594274 -2.638829 -0.000015 0.000937 -0.000002 0.000001 -0.000001 -8.076769 -0.486415 -3.806070 73.155028 21.953058 -16.260486 -3.600055 0.000245 -0.003575 75.306326 11.968652 -8.959382 -2.100010 0.000317 -0.005539 80.163082 7.060722 -5.755161 -2.115761 -0.000037 -0.003684 0.000001 -0.000005 -0.000003 4.570446 11.014691 -2.160851 -0.000018 0.000010 -0.000021 10.592495 -0.524559 -2.232372 48.050675 -63.558448 30.875973 27.841740 -0.000044 -0.000106 230.249720 -73.173879 244.566261 28.328840 0.000002 0.000038 0.000018 -0.000090 -0.000001 2.466191 -1.576140 2.681868 18.945697 142.161891 -88.259267 3.217852 -1.871996 1.916541 36.468712 149.111362 -108.609037 2.656116 -1.528622 1.514621 61.246340 -183.769409 216.868164 2.020880 -1.154081 1.115139 0.000001 0.000003 0.000001 9.109102 -0.517933 2.260035 20.404753 -142.891915 56.387159 3.699760 0.000093 -0.000159 -160.358608 -35.290997 -122.872685 2.849746 0.000164 0.000503 16.302106 -155.389454 66.578239 2.774878 -0.000028 -0.000025 0.000001 0.000001 0.000001 9.533214 0.000038 0.000162 5.655714 -147.574515 19.262382 3.699737 0.000111 -0.000106 551.823551 -26.071015 -491.812088 2.949731 0.000123 0.000047 367.484996 -165.391542 -305.920129 2.952860 -0.000044 0.000066 0.000000 -0.000000 -0.000004 9.104650 -0.042819 -1.865135 130.533972 -22.576041 46.859254 3.150021 0.000272 -0.000132 101.927897 -1.226532 1.514597 2.949924 0.000280 -0.000165 96.488149 11.973911 -13.399184 2.644317 0.000015 0.000054 0.000000 0.000002 -0.000003 8.077883 -0.486606 -3.806327 129.732340 -16.374759 35.344074 3.599905 0.000330 0.014554 111.407298 9.153553 -12.882604 2.099887 0.000287 0.007516 102.902162 19.391800 -23.901412 2.125498 -0.000025 0.007510 0.000000 0.000000 0.000002 -8.207786 -6.751667 -1.599560 -0.077001 -0.000003 0.000080 -0.000002 -44.370110 0.345938 0.153719 -0.000000 -0.000000 0.000000 -44.423679 -3.043532 -0.076700 0.000000 -0.000002 -0.000006 -8.728667 10.710559 -0.000009 -0.000000 -0.000000 -0.000001 -0.000679 9.278123 0.000000 -0.000000 -0.000000 8.207792 -6.751710 -1.599556 -0.074518 -0.000003 0.000081 -0.000002 -44.370014 0.346960 0.148822 0.000002 0.000000 -0.000001 -44.423664 -3.044403 -0.074314 0.000000 -0.000002 -0.000004 -8.728671 10.710558 0.000007 -0.000000 -0.000000 0.000000 -0.000680 9.278137 -0.000000 0.000000 -0.000001 
0.000006 104.270477 1.554256 0.000010 0.000003 -0.000113 -0.000005 10.181587 0.131522 0.000001 -0.000003 0.000084 -0.000000 9.893967 -1.470711 0.000001 0.000000 -0.000000 -0.000000 9.220802 -1.370642 0.000000 -0.000000 -0.000000 0.000001 16.740433 -2.049030 0.000000 -0.000000 -0.000000 0.000000 9.617859 1.685014 0.000000 0.000000 0.000000 0.000002 22.037384 7.501101 0.000000 -0.000000 0.000000 -4.569968 11.014880 -2.160881 0.000008 0.000001 -0.000038 -10.592880 -0.524755 -2.231920 74.717529 26.394904 -20.299418 -27.841499 0.000008 0.000549 -48.072473 112.371870 67.315517 -28.328814 0.000020 0.000028 -0.000323 -0.000044 0.000007 -2.464427 -1.573722 2.682315 -50.778106 -168.177849 -17.875302 -3.215280 -1.872566 1.924643 151.333865 31.839203 8.516080 -2.654967 -1.527888 1.513060 144.717652 27.771679 -31.898705 -2.018826 -1.152001 1.108057 -0.000003 -0.000003 0.000002 -9.108391 -0.517558 2.260114 99.532433 14.950598 -17.685241 -3.700066 0.000324 0.001504 96.159440 13.061157 -14.505391 -2.850091 0.000371 -0.000271 94.665753 11.506936 -12.475901 -2.772171 0.000002 -0.000018 -0.000000 -0.000001 0.000000 -9.532596 0.000272 0.000209 88.643308 15.677980 -15.454148 -3.700056 0.000334 0.003942 89.771109 11.706371 -11.566138 -2.950053 0.000345 -0.001817 92.573208 11.861128 -12.394552 -2.946628 0.000014 -0.000154 -0.000004 0.000000 -0.000002 -9.103712 -0.042764 -1.864888 86.137435 19.063036 -17.797405 -3.379335 0.000312 -0.000848 89.820669 10.346685 -10.331960 -2.889773 0.000341 0.000643 96.716421 8.230695 -9.304706 -2.638814 0.000000 0.000937 0.000003 -0.000001 -0.000001 -8.076772 -0.486411 -3.806083 72.941024 21.435789 -15.809905 -3.600063 0.000244 -0.003573 75.037073 11.651209 -8.672387 -2.100009 0.000300 -0.005528 80.216761 6.893134 -5.619768 -2.115771 -0.000041 -0.003686 -0.000000 0.000003 -0.000002 4.570446 11.014691 -2.160851 -0.000018 0.000010 -0.000021 10.592495 -0.524552 -2.232368 46.086814 -64.115990 29.834318 27.841742 -0.000068 -0.000105 231.108029 -72.541779 246.176055 28.328842 -0.000029 0.000024 0.000022 -0.000091 -0.000001 2.466151 -1.576138 2.681887 9.321741 138.405273 -74.572067 3.217791 -1.872009 1.916526 38.782439 141.744976 -105.291027 2.656091 -1.528678 1.514630 70.836486 -192.908803 217.892269 2.020888 -1.154075 1.115127 0.000006 0.000003 -0.000003 9.109150 -0.517780 2.260089 48.292094 -153.404123 124.405940 3.699836 0.000220 -0.000097 -125.879048 -27.039525 -50.417659 2.849870 0.000295 0.000572 49.283042 -158.256972 134.564699 2.774882 -0.000044 -0.000010 -0.000002 0.000000 -0.000001 9.533477 0.000086 0.000089 -23.718313 -147.573026 -71.697548 3.700137 0.000124 -0.000217 515.453230 -21.101366 -638.874421 2.950124 0.000246 -0.000073 334.938653 -168.947024 -132.936313 2.952866 -0.000030 0.000053 -0.000001 0.000003 -0.000003 9.104645 -0.042800 -1.865169 122.481889 -22.926643 40.561249 3.149996 0.000276 -0.000133 100.930962 -0.195700 0.238970 2.949927 0.000280 -0.000171 93.123229 11.935413 -12.597985 2.644314 0.000029 0.000072 0.000002 -0.000004 0.000005 8.077904 -0.486619 -3.806330 125.448869 -19.751691 38.462274 3.599912 0.000347 0.014542 109.264975 6.976276 -9.301176 2.099905 0.000283 0.007492 100.237315 18.129673 -21.313962 2.125493 -0.000002 0.007526 0.000001 0.000000 0.000001 -8.207786 -6.751667 -1.599560 -0.077001 -0.000003 0.000080 -0.000002 -44.370110 0.345938 0.153719 -0.000000 -0.000000 0.000000 -44.423679 -3.043532 -0.076700 0.000000 -0.000002 -0.000006 -8.728667 10.710559 -0.000009 -0.000000 -0.000000 -0.000001 -0.000679 9.278123 0.000000 -0.000000 -0.000000 8.207792 -6.751710 -1.599556 -0.074518 -0.000003 0.000081 -0.000002 -44.370014 0.346960 0.148822 0.000002 0.000000 -0.000001 -44.423664 -3.044403 -0.074314 0.000000 -0.000002 -0.000004 -8.728671 10.710558 0.000007 -0.000000 -0.000000 0.000000 -0.000680 9.278137 -0.000000 0.000000 -0.000001 
